<svg version="1.1" id="icons" xmlns="http://www.w3.org/2000/svg" x="0" y="0" viewBox="0 0 20 400" xml:space="preserve"><style>.st0{fill:#fff}.st2{fill:#515151}</style><path class="st0" d="M13.1 177.4c0-.4-.1-.8-.2-1.1s-.3-.5-.6-.7c-.2-.2-.5-.4-.8-.5-.3-.1-.6-.2-.8-.3-.3-.1-.5-.2-.8-.3l-.6-.3c-.1-.1-.2-.3-.2-.5 0-.3.1-.4.3-.6.2-.1.5-.2.8-.2.3 0 .6.1.8.2.3.1.5.3.7.6l1.2-1.2c-.3-.4-.7-.6-1.2-.8-.3-.1-.7-.2-1-.3v-1.1H9.5v1.2c-.3 0-.5.1-.7.2-.4.2-.8.5-1 .9s-.4.8-.4 1.4c0 .4.1.8.2 1.1.1.3.3.5.6.7.2.2.5.3.8.5s.6.2.8.3c.3.1.5.2.8.3.2.1.4.2.6.4.1.1.2.3.2.6s-.1.5-.3.6-.5.2-.9.2-.8-.1-1.1-.3c-.3-.2-.6-.4-.9-.8L7 178.8c.4.5.9.8 1.3 1 .4.2.8.3 1.3.3v1.1h1.3V180c.6-.1 1-.3 1.4-.6.5-.5.8-1.2.8-2zM14.8 73.6c.7-.9 1.1-2 1.1-3.3 0-3-2.5-5.4-5.4-5.4S5 67.3 5 70.3c0 1.1.4 2.2 1 3.2-2.4.4-4.1 2.4-4.1 4.8v5.8c0 .6.5 1.1 1.1 1.1s1.1-.5 1.1-1.1v-5.8c0-1.4 1.1-2.5 2.5-2.5h6.5c1.4 0 2.5 1.1 2.5 2.5V84c0 .7.5 1.2 1.2 1.2S18 84.7 18 84v-5.8c.2-2.1-1.2-4-3.2-4.6zm-4.5-.3c-1.7 0-3.1-1.4-3.1-3.1s1.4-3.1 3.1-3.1 3.1 1.4 3.1 3.1-1.5 3.1-3.1 3.1z"/><path d="M14 229.2c-.4 0-.7-.1-.9-.4l-2.4-2.4c-.4-.4-.4-1 0-1.4s1-.4 1.4 0l1.9 1.9 4.3-4.3c.4-.4 1-.4 1.4 0s.4 1 0 1.4l-4.7 4.7c-.3.3-.6.5-1 .5zm-.5-1.8zm1 0z" fill="#53b262"/><path class="st2" d="M10 279.7c-.4 0-.7-.1-1-.4l-5-5c-.4-.4-.4-1 0-1.4s1-.4 1.4 0l4.6 4.6 4.7-4.7c.4-.4 1-.4 1.4 0s.4 1 0 1.4l-5.1 5.1c-.3.3-.7.4-1 .4z"/><path class="st0" d="M19.2 24.1v.2c0 2.2-.3 3.8-1 4.7-.6 1-1.7 1.5-3 1.5-.9 0-1.8-.2-2.4-.7-.1-.1-.2-.2-.3-.4-1.2.7-2.2 1.2-3.1 1.2-1.4 0-2.3-.4-2.9-1.3-.6-.8-.9-2.1-.9-4 0-1.8.3-3.1.9-4C6.9 20.4 8 20 9.3 20c.5 0 1 .1 1.6.4l.3.1v-.3H14V24c0 1.9 0 3 .1 3.4.1.3.2.5.2.6.1.1.2.2.3.2h.4c.4 0 .7-.3.9-.8.2-.5.3-1.6.3-3v-.2c0-2.2-.5-3.9-1.6-4.8-1-1-2.6-1.5-4.9-1.5s-4 .6-5.1 1.9c-1.2 1.3-1.8 3.1-1.8 5.6s.5 4.3 1.6 5.4c1 1.2 2.8 1.8 5.3 1.8l1.8-.1c.7 0 1.3.5 1.3 1.2s-.5 1.2-1.1 1.3c-.8.1-1.4.1-2 .1-1.6 0-3-.2-4.2-.5s-2.2-.8-3-1.6C1 31.3.2 28.7.2 25c0-3.2.8-5.7 2.6-7.3s4.1-2.5 7.1-2.5 5.3.7 6.9 2.3c1.6 1.5 2.4 3.7 2.4 6.6zM9.4 28c.5 0 1.2-.2 1.9-.5-.1-.5-.1-1.3-.1-2.2v-2.6c-.6-.1-1-.2-1.3-.2-.7 0-1.2.2-1.5.6-.2.4-.3 1.2-.3 2.1.1 1.9.5 2.8 1.3 2.8zM2.6 135.5h-.4c-.5 0-1-.2-1.4-.6-.5-.5-.6-1.2-.5-1.9l1-3c-.7-1.3-1.1-2.8-1.1-4.4v-.4c.1-5.3 4.4-9.4 9.7-9.4 5.4 0 9.7 4.2 9.8 9.5v.4c0 5.4-4.4 9.7-9.7 9.7-1.5 0-2.8-.3-4.1-.9l-3.3 1zm-.3-2l3.9-1.2.4.2c1.1.6 2.2.9 3.6.9 4.3 0 7.8-3.5 7.8-7.8v-.4c-.1-4.2-3.5-7.6-7.9-7.6-4.3 0-7.7 3.3-7.8 7.5v.4c0 1.4.3 2.7 1 3.8l.2.4-1.2 3.8z"/><path d="M15 128c-.3-.1-1.5-.8-1.8-.9-.2-.1-.4-.1-.6.1-.2.3-.7.8-.9 1-.2.2-.3.2-.6 0-.3-.1-1.1-.5-2.1-1.4-.8-.7-1.3-1.6-1.4-1.9-.1-.3 0-.4.1-.5l.4-.4c.1-.1.2-.3.3-.4.1-.2.1-.3 0-.5-.1-.1-.5-1.5-.7-2-.2-.5-.4-.5-.6-.5h-.5c-.2 0-.5 0-.7.3-.3.3-1 .9-1 2.2 0 1.3.9 2.6 1 2.8.1.2 1.7 3 4.4 4.2 2.6 1.2 2.7.8 3.1.8.5 0 1.6-.6 1.8-1.2.2-.6.3-1.1.2-1.3 0-.2-.1-.2-.4-.4z" fill-rule="evenodd" clip-rule="evenodd" fill="#fff"/><path class="st0" d="M19.9 175.6c0-5.4-4.5-9.9-9.9-9.9s-9.9 4.5-9.9 9.9 4.5 9.9 9.9 9.9 9.9-4.4 9.9-9.9zm-17.4 0c0-4.2 3.4-7.5 7.5-7.5s7.5 3.4 7.5 7.5-3.4 7.5-7.5 7.5c-4.2.1-7.5-3.3-7.5-7.5z"/><path class="st2" d="M10 320.4c.4 0 .7.1 1 .4l5 5c.4.4.4 1 0 1.4-.4.4-1 .4-1.4 0l-4.6-4.6-4.7 4.7c-.4.4-1 .4-1.4 0s-.4-1 0-1.4l5.1-5.1c.3-.3.7-.4 1-.4z"/><path d="M4.2 380.3l6.3-11.5c.7-1.2 2.4-1.2 3 0l6.3 11.5c.6 1.2-.2 2.6-1.5 2.6H5.8c-1.4-.1-2.2-1.5-1.6-2.6z" fill="#e6283f"/><g><path class="st0" d="M12.7 379h-1.4c-.3 0-.5.2-.5.5v1.4c0 .3.2.5.5.5h1.4c.3 0 .5-.2.5-.5v-1.4c0-.3-.2-.5-.5-.5zM12.9 377.8h-1.8c-.2 0-.3-.1-.3-.3v-6.6c0-.2.1-.3.3-.3h1.8c.2 0 .3.1.3.3v6.6c0 .2-.1.3-.3.3z"/></g></svg>